<svg version="1.1" viewBox="0.0 0.0 504.0 192.0" fill="none" stroke="none" stroke-linecap="square" stroke-miterlimit="10" width="504" height="192" xmlns:xlink="http://www.w3.org/1999/xlink" xmlns="http://www.w3.org/2000/svg"><path fill="#ffffff" fill-opacity="0.0" d="M0 0L504.0 0L504.0 192.0L0 192.0L0 0Z" fill-rule="nonzero"/><path stroke="#333333" stroke-width="1.0" stroke-linecap="butt" d="M69.5 128.5L494.5 128.5" fill-rule="nonzero"/><path stroke="#cccccc" stroke-width="1.0" stroke-linecap="butt" d="M69.5 72.5L494.5 72.5" fill-rule="nonzero"/><path stroke="#cccccc" stroke-width="1.0" stroke-linecap="butt" d="M69.5 17.5L494.5 17.5" fill-rule="nonzero"/><path stroke="#000000" stroke-width="1.0" stroke-linecap="butt" stroke-opacity="0.0" d="M69.5 109.5L494.5 109.5" fill-rule="nonzero"/><path stroke="#000000" stroke-width="1.0" stroke-linecap="butt" stroke-opacity="0.0" d="M69.5 91.5L494.5 91.5" fill-rule="nonzero"/><path stroke="#000000" stroke-width="1.0" stroke-linecap="butt" stroke-opacity="0.0" d="M69.5 54.5L494.5 54.5" fill-rule="nonzero"/><path stroke="#000000" stroke-width="1.0" stroke-linecap="butt" stroke-opacity="0.0" d="M69.5 35.5L494.5 35.5" fill-rule="nonzero"/><clipPath id="id_0"><path d="M69.6 17.1L494.4 17.1L494.4 128.4L69.6 128.4L69.6 17.1Z" clip-rule="nonzero"/></clipPath><path stroke="#000000" stroke-width="2.0" stroke-linecap="butt" stroke-opacity="0.0" clip-path="url(#id_0)" d="M100.0 128.0L81.0 128.0L81.0 75.0C81.0 73.89543 81.89543 73.0 83.0 73.0L98.0 73.0C99.10457 73.0 100.0 73.89543 100.0 75.0Z" fill-rule="nonzero"/><path fill="#4285f4" clip-path="url(#id_0)" d="M100.0 128.0L81.0 128.0L81.0 75.0C81.0 73.89543 81.89543 73.0 83.0 73.0L98.0 73.0C99.10457 73.0 100.0 73.89543 100.0 75.0Z" fill-rule="nonzero"/><path stroke="#000000" stroke-width="2.0" stroke-linecap="butt" stroke-opacity="0.0" clip-path="url(#id_0)" d="M129.0 128.0L110.0 128.0L110.0 19.0C110.0 17.89543 110.89543 17.0 112.0 17.0L127.0 17.0C128.10457 17.0 129.0 17.89543 129.0 19.0Z" fill-rule="nonzero"/><path fill="#4285f4" clip-path="url(#id_0)" d="M129.0 128.0L110.0 128.0L110.0 19.0C110.0 17.89543 110.89543 17.0 112.0 17.0L127.0 17.0C128.10457 17.0 129.0 17.89543 129.0 19.0Z" fill-rule="nonzero"/><path stroke="#000000" stroke-width="2.0" stroke-linecap="butt" stroke-opacity="0.0" clip-path="url(#id_0)" d="M159.0 128.0L140.0 128.0L140.0 75.0C140.0 73.89543 140.89543 73.0 142.0 73.0L157.0 73.0C158.10457 73.0 159.0 73.89543 159.0 75.0Z" fill-rule="nonzero"/><path fill="#4285f4" clip-path="url(#id_0)" d="M159.0 128.0L140.0 128.0L140.0 75.0C140.0 73.89543 140.89543 73.0 142.0 73.0L157.0 73.0C158.10457 73.0 159.0 73.89543 159.0 75.0Z" fill-rule="nonzero"/><path stroke="#000000" stroke-width="2.0" stroke-linecap="butt" stroke-opacity="0.0" clip-path="url(#id_0)" d="M188.0 128.0L169.0 128.0L169.0 75.0C169.0 73.89543 169.89543 73.0 171.0 73.0L186.0 73.0C187.10457 73.0 188.0 73.89543 188.0 75.0Z" fill-rule="nonzero"/><path fill="#4285f4" clip-path="url(#id_0)" d="M188.0 128.0L169.0 128.0L169.0 75.0C169.0 73.89543 169.89543 73.0 171.0 73.0L186.0 73.0C187.10457 73.0 188.0 73.89543 188.0 75.0Z" fill-rule="nonzero"/><path stroke="#000000" stroke-width="2.0" stroke-linecap="butt" stroke-opacity="0.0" clip-path="url(#id_0)" d="M218.0 128.0L199.0 128.0L199.0 19.0C199.0 17.89543 199.89543 17.0 201.0 17.0L216.0 17.0C217.10457 17.0 218.0 17.89543 218.0 19.0Z" fill-rule="nonzero"/><path fill="#4285f4" clip-path="url(#id_0)" d="M218.0 128.0L199.0 128.0L199.0 19.0C199.0 17.89543 199.89543 17.0 201.0 17.0L216.0 17.0C217.10457 17.0 218.0 17.89543 218.0 19.0Z" fill-rule="nonzero"/><path stroke="#000000" stroke-width="2.0" stroke-linecap="butt" stroke-opacity="0.0" clip-path="url(#id_0)" d="M248.0 128.0L229.0 128.0L229.0 75.0C229.0 73.89543 229.89543 73.0 231.0 73.0L246.0 73.0C247.10457 73.0 248.0 73.89543 248.0 75.0Z" fill-rule="nonzero"/><path fill="#4285f4" clip-path="url(#id_0)" d="M248.0 128.0L229.0 128.0L229.0 75.0C229.0 73.89543 229.89543 73.0 231.0 73.0L246.0 73.0C247.10457 73.0 248.0 73.89543 248.0 75.0Z" fill-rule="nonzero"/><path stroke="#000000" stroke-width="2.0" stroke-linecap="butt" stroke-opacity="0.0" clip-path="url(#id_0)" d="M277.0 128.0L258.0 128.0L258.0 75.0C258.0 73.89543 258.89542 73.0 260.0 73.0L275.0 73.0C276.10458 73.0 277.0 73.89543 277.0 75.0Z" fill-rule="nonzero"/><path fill="#4285f4" clip-path="url(#id_0)" d="M277.0 128.0L258.0 128.0L258.0 75.0C258.0 73.89543 258.89542 73.0 260.0 73.0L275.0 73.0C276.10458 73.0 277.0 73.89543 277.0 75.0Z" fill-rule="nonzero"/><path stroke="#000000" stroke-width="2.0" stroke-linecap="butt" stroke-opacity="0.0" clip-path="url(#id_0)" d="M307.0 128.0L288.0 128.0L288.0 19.0C288.0 17.89543 288.89542 17.0 290.0 17.0L305.0 17.0C306.10458 17.0 307.0 17.89543 307.0 19.0Z" fill-rule="nonzero"/><path fill="#4285f4" clip-path="url(#id_0)" d="M307.0 128.0L288.0 128.0L288.0 19.0C288.0 17.89543 288.89542 17.0 290.0 17.0L305.0 17.0C306.10458 17.0 307.0 17.89543 307.0 19.0Z" fill-rule="nonzero"/><path stroke="#000000" stroke-width="2.0" stroke-linecap="butt" stroke-opacity="0.0" clip-path="url(#id_0)" d="M336.0 128.0L317.0 128.0L317.0 19.0C317.0 17.89543 317.89542 17.0 319.0 17.0L334.0 17.0C335.10458 17.0 336.0 17.89543 336.0 19.0Z" fill-rule="nonzero"/><path fill="#4285f4" clip-path="url(#id_0)" d="M336.0 128.0L317.0 128.0L317.0 19.0C317.0 17.89543 317.89542 17.0 319.0 17.0L334.0 17.0C335.10458 17.0 336.0 17.89543 336.0 19.0Z" fill-rule="nonzero"/><path stroke="#000000" stroke-width="2.0" stroke-linecap="butt" stroke-opacity="0.0" clip-path="url(#id_0)" d="M366.0 128.0L347.0 128.0L347.0 75.0C347.0 73.89543 347.89542 73.0 349.0 73.0L364.0 73.0C365.10458 73.0 366.0 73.89543 366.0 75.0Z" fill-rule="nonzero"/><path fill="#4285f4" clip-path="url(#id_0)" d="M366.0 128.0L347.0 128.0L347.0 75.0C347.0 73.89543 347.89542 73.0 349.0 73.0L364.0 73.0C365.10458 73.0 366.0 73.89543 366.0 75.0Z" fill-rule="nonzero"/><path stroke="#000000" stroke-width="2.0" stroke-linecap="butt" stroke-opacity="0.0" clip-path="url(#id_0)" d="M396.0 128.0L377.0 128.0L377.0 75.0C377.0 73.89543 377.89542 73.0 379.0 73.0L394.0 73.0C395.10458 73.0 396.0 73.89543 396.0 75.0Z" fill-rule="nonzero"/><path fill="#4285f4" clip-path="url(#id_0)" d="M396.0 128.0L377.0 128.0L377.0 75.0C377.0 73.89543 377.89542 73.0 379.0 73.0L394.0 73.0C395.10458 73.0 396.0 73.89543 396.0 75.0Z" fill-rule="nonzero"/><path stroke="#000000" stroke-width="2.0" stroke-linecap="butt" stroke-opacity="0.0" clip-path="url(#id_0)" d="M425.0 128.0L406.0 128.0L406.0 75.0C406.0 73.89543 406.89542 73.0 408.0 73.0L423.0 73.0C424.10458 73.0 425.0 73.89543 425.0 75.0Z" fill-rule="nonzero"/><path fill="#4285f4" clip-path="url(#id_0)" d="M425.0 128.0L406.0 128.0L406.0 75.0C406.0 73.89543 406.89542 73.0 408.0 73.0L423.0 73.0C424.10458 73.0 425.0 73.89543 425.0 75.0Z" fill-rule="nonzero"/><path stroke="#000000" stroke-width="2.0" stroke-linecap="butt" stroke-opacity="0.0" clip-path="url(#id_0)" d="M455.0 128.0L436.0 128.0L436.0 75.0C436.0 73.89543 436.89542 73.0 438.0 73.0L453.0 73.0C454.10458 73.0 455.0 73.89543 455.0 75.0Z" fill-rule="nonzero"/><path fill="#4285f4" clip-path="url(#id_0)" d="M455.0 128.0L436.0 128.0L436.0 75.0C436.0 73.89543 436.89542 73.0 438.0 73.0L453.0 73.0C454.10458 73.0 455.0 73.89543 455.0 75.0Z" fill-rule="nonzero"/><path stroke="#000000" stroke-width="2.0" stroke-linecap="butt" stroke-opacity="0.0" clip-path="url(#id_0)" d="M484.0 128.0L465.0 128.0L465.0 75.0C465.0 73.89543 465.89542 73.0 467.0 73.0L482.0 73.0C483.10458 73.0 484.0 73.89543 484.0 75.0Z" fill-rule="nonzero"/><path fill="#4285f4" clip-path="url(#id_0)" d="M484.0 128.0L465.0 128.0L465.0 75.0C465.0 73.89543 465.89542 73.0 467.0 73.0L482.0 73.0C483.10458 73.0 484.0 73.89543 484.0 75.0Z" fill-rule="nonzero"/><path fill="#000000" d="M225.14062 176.68124L226.26562 176.68124Q226.17188 177.49374 225.79688 178.13437Q225.42188 178.775 224.73438 179.15Q224.0625 179.525 223.03125 179.525Q222.28125 179.525 221.67188 179.24374Q221.0625 178.94687 220.60938 178.43124Q220.17188 177.91562 219.9375 177.19687Q219.70312 176.4625 219.70312 175.55624L219.70312 174.7125Q219.70312 173.82187 219.9375 173.0875Q220.17188 172.35312 220.625 171.8375Q221.07812 171.30624 221.70312 171.025Q222.34375 170.74374 223.125 170.74374Q224.09375 170.74374 224.76562 171.11874Q225.4375 171.47812 225.79688 172.11874Q226.17188 172.75937 226.26562 173.60312L225.14062 173.60312Q225.0625 173.00937 224.82812 172.5875Q224.60938 172.15 224.20312 171.91562Q223.79688 171.68124 223.125 171.68124Q222.5625 171.68124 222.125 171.9Q221.70312 172.10312 221.40625 172.50937Q221.125 172.9 220.96875 173.4625Q220.82812 174.025 220.82812 174.69687L220.82812 175.55624Q220.82812 176.18124 220.95312 176.74374Q221.09375 177.29062 221.35938 177.7125Q221.625 178.11874 222.04688 178.36874Q222.46875 178.60312 223.03125 178.60312Q223.75 178.60312 224.17188 178.36874Q224.60938 178.13437 224.82812 177.7125Q225.04688 177.29062 225.14062 176.68124ZM231.5625 178.32187L231.5625 175.05624Q231.5625 174.68124 231.40625 174.4Q231.26562 174.11874 230.96875 173.97812Q230.67188 173.82187 230.23438 173.82187Q229.8125 173.82187 229.5 173.9625Q229.20312 174.10312 229.03125 174.3375Q228.85938 174.55624 228.85938 174.82187L227.78125 174.82187Q227.78125 174.47812 227.95312 174.15Q228.125 173.80624 228.45312 173.54062Q228.78125 173.25937 229.25 173.10312Q229.71875 172.94687 230.29688 172.94687Q230.98438 172.94687 231.51562 173.18124Q232.04688 173.41562 232.34375 173.88437Q232.65625 174.35312 232.65625 175.05624L232.65625 178.00937Q232.65625 178.3375 232.70312 178.69687Q232.76562 179.04062 232.875 179.30624L232.875 179.4L231.73438 179.4Q231.65625 179.2125 231.60938 178.9Q231.5625 178.5875 231.5625 178.32187ZM231.75 175.55624L231.76562 176.32187L230.67188 176.32187Q230.20312 176.32187 229.84375 176.4Q229.48438 176.4625 229.23438 176.61874Q228.98438 176.75937 228.85938 176.97812Q228.73438 177.19687 228.73438 177.49374Q228.73438 177.79062 228.85938 178.04062Q229.0 178.275 229.26562 178.43124Q229.54688 178.57187 229.9375 178.57187Q230.4375 178.57187 230.8125 178.36874Q231.20312 178.15 231.42188 177.85312Q231.65625 177.54062 231.67188 177.24374L232.14062 177.775Q232.09375 178.00937 231.90625 178.32187Q231.73438 178.61874 231.42188 178.9Q231.125 179.16562 230.70312 179.35312Q230.29688 179.525 229.78125 179.525Q229.14062 179.525 228.65625 179.275Q228.17188 179.00937 227.90625 178.5875Q227.64062 178.16562 227.64062 177.63437Q227.64062 177.11874 227.82812 176.74374Q228.03125 176.35312 228.40625 176.0875Q228.78125 175.82187 229.3125 175.69687Q229.84375 175.55624 230.5 175.55624L231.75 175.55624ZM228.26562 172.11874L229.96875 170.5875L230.85938 170.5875L232.5625 172.11874L231.40625 172.11874L230.40625 171.19687L229.42188 172.11874L228.26562 172.11874ZM232.125 171.0875L232.95312 169.57187L234.125 169.57187L232.95312 171.0875L232.125 171.0875ZM235.90625 174.275L235.90625 181.8375L234.82812 181.8375L234.82812 173.05624L235.8125 173.05624L235.90625 174.275ZM240.1875 176.18124L240.1875 176.30624Q240.1875 176.99374 240.01562 177.5875Q239.85938 178.16562 239.54688 178.60312Q239.23438 179.04062 238.76562 179.29062Q238.3125 179.525 237.71875 179.525Q237.125 179.525 236.65625 179.32187Q236.1875 179.11874 235.85938 178.74374Q235.54688 178.35312 235.35938 177.82187Q235.17188 177.29062 235.09375 176.61874L235.09375 175.9625Q235.17188 175.25937 235.35938 174.7125Q235.54688 174.15 235.85938 173.75937Q236.1875 173.35312 236.64062 173.15Q237.10938 172.94687 237.70312 172.94687Q238.29688 172.94687 238.76562 173.18124Q239.23438 173.4 239.54688 173.8375Q239.85938 174.25937 240.01562 174.85312Q240.1875 175.44687 240.1875 176.18124ZM239.09375 176.30624L239.09375 176.18124Q239.09375 175.69687 238.98438 175.29062Q238.89062 174.86874 238.6875 174.55624Q238.48438 174.22812 238.15625 174.04062Q237.82812 173.85312 237.39062 173.85312Q236.98438 173.85312 236.67188 173.99374Q236.375 174.13437 236.15625 174.38437Q235.95312 174.61874 235.8125 174.91562Q235.6875 175.2125 235.625 175.54062L235.625 177.05624Q235.73438 177.4625 235.9375 177.82187Q236.15625 178.18124 236.5 178.4Q236.85938 178.61874 237.40625 178.61874Q237.84375 178.61874 238.15625 178.44687Q238.48438 178.25937 238.6875 177.94687Q238.89062 177.61874 238.98438 177.19687Q239.09375 176.775 239.09375 176.30624ZM249.53125 177.24374Q249.53125 176.94687 249.4375 176.7125Q249.35938 176.47812 249.125 176.29062Q248.90625 176.10312 248.5 175.93124Q248.10938 175.75937 247.51562 175.5875Q246.875 175.4 246.35938 175.18124Q245.85938 174.94687 245.48438 174.65Q245.125 174.3375 244.9375 173.9625Q244.75 173.57187 244.75 173.07187Q244.75 172.57187 244.95312 172.15Q245.15625 171.72812 245.53125 171.41562Q245.92188 171.10312 246.45312 170.93124Q246.98438 170.74374 247.64062 170.74374Q248.60938 170.74374 249.28125 171.11874Q249.95312 171.47812 250.29688 172.07187Q250.65625 172.66562 250.65625 173.32187L249.53125 173.32187Q249.53125 172.85312 249.3125 172.47812Q249.10938 172.10312 248.6875 171.9Q248.28125 171.68124 247.64062 171.68124Q247.04688 171.68124 246.64062 171.86874Q246.25 172.04062 246.0625 172.35312Q245.875 172.66562 245.875 173.05624Q245.875 173.32187 245.98438 173.55624Q246.10938 173.775 246.34375 173.9625Q246.59375 174.15 246.96875 174.30624Q247.34375 174.4625 247.875 174.60312Q248.59375 174.80624 249.125 175.07187Q249.65625 175.32187 250.0 175.63437Q250.34375 175.94687 250.5 176.3375Q250.67188 176.72812 250.67188 177.22812Q250.67188 177.75937 250.45312 178.18124Q250.25 178.60312 249.85938 178.9Q249.46875 179.19687 248.92188 179.36874Q248.375 179.525 247.70312 179.525Q247.10938 179.525 246.53125 179.35312Q245.96875 179.18124 245.5 178.85312Q245.03125 178.525 244.75 178.05624Q244.46875 177.57187 244.46875 176.93124L245.59375 176.93124Q245.59375 177.36874 245.76562 177.68124Q245.9375 177.99374 246.23438 178.19687Q246.53125 178.4 246.90625 178.50937Q247.28125 178.60312 247.70312 178.60312Q248.29688 178.60312 248.70312 178.44687Q249.10938 178.275 249.3125 177.97812Q249.53125 177.66562 249.53125 177.24374ZM251.98438 170.86874L254.8125 170.86874Q255.78125 170.86874 256.4375 171.16562Q257.10938 171.44687 257.45312 172.025Q257.79688 172.60312 257.79688 173.43124Q257.79688 174.00937 257.5625 174.49374Q257.32812 174.97812 256.875 175.32187Q256.4375 175.65 255.82812 175.82187L255.51562 175.94687L252.85938 175.94687L252.84375 175.025L254.84375 175.025Q255.45312 175.025 255.85938 174.80624Q256.26562 174.5875 256.46875 174.22812Q256.67188 173.86874 256.67188 173.43124Q256.67188 172.93124 256.48438 172.57187Q256.29688 172.19687 255.875 171.99374Q255.46875 171.79062 254.8125 171.79062L253.125 171.79062L253.125 179.4L251.98438 179.4L251.98438 170.86874ZM256.98438 179.4L254.90625 175.525L256.07812 175.525L258.1875 179.32187L258.1875 179.4L256.98438 179.4ZM263.53125 177.24374Q263.53125 176.94687 263.4375 176.7125Q263.35938 176.47812 263.125 176.29062Q262.90625 176.10312 262.5 175.93124Q262.10938 175.75937 261.51562 175.5875Q260.875 175.4 260.35938 175.18124Q259.85938 174.94687 259.48438 174.65Q259.125 174.3375 258.9375 173.9625Q258.75 173.57187 258.75 173.07187Q258.75 172.57187 258.95312 172.15Q259.15625 171.72812 259.53125 171.41562Q259.92188 171.10312 260.45312 170.93124Q260.98438 170.74374 261.64062 170.74374Q262.60938 170.74374 263.28125 171.11874Q263.95312 171.47812 264.29688 172.07187Q264.65625 172.66562 264.65625 173.32187L263.53125 173.32187Q263.53125 172.85312 263.3125 172.47812Q263.10938 172.10312 262.6875 171.9Q262.28125 171.68124 261.64062 171.68124Q261.04688 171.68124 260.64062 171.86874Q260.25 172.04062 260.0625 172.35312Q259.875 172.66562 259.875 173.05624Q259.875 173.32187 259.98438 173.55624Q260.10938 173.775 260.34375 173.9625Q260.59375 174.15 260.96875 174.30624Q261.34375 174.4625 261.875 174.60312Q262.59375 174.80624 263.125 175.07187Q263.65625 175.32187 264.0 175.63437Q264.34375 175.94687 264.5 176.3375Q264.67188 176.72812 264.67188 177.22812Q264.67188 177.75937 264.45312 178.18124Q264.25 178.60312 263.85938 178.9Q263.46875 179.19687 262.92188 179.36874Q262.375 179.525 261.70312 179.525Q261.10938 179.525 260.53125 179.35312Q259.96875 179.18124 259.5 178.85312Q259.03125 178.525 258.75 178.05624Q258.46875 177.57187 258.46875 176.93124L259.59375 176.93124Q259.59375 177.36874 259.76562 177.68124Q259.9375 177.99374 260.23438 178.19687Q260.53125 178.4 260.90625 178.50937Q261.28125 178.60312 261.70312 178.60312Q262.29688 178.60312 262.70312 178.44687Q263.10938 178.275 263.3125 177.97812Q263.53125 177.66562 263.53125 177.24374ZM269.34375 170.86874L270.4375 170.86874L273.23438 177.82187L276.03125 170.86874L277.125 170.86874L273.65625 179.4L272.8125 179.4L269.34375 170.86874ZM268.98438 170.86874L269.95312 170.86874L270.10938 176.07187L270.10938 179.4L268.98438 179.4L268.98438 170.86874ZM276.51562 170.86874L277.48438 170.86874L277.48438 179.4L276.35938 179.4L276.35938 176.07187L276.51562 170.86874ZM282.5625 178.32187L282.5625 175.05624Q282.5625 174.68124 282.40625 174.4Q282.26562 174.11874 281.96875 173.97812Q281.67188 173.82187 281.23438 173.82187Q280.8125 173.82187 280.5 173.9625Q280.20312 174.10312 280.03125 174.3375Q279.85938 174.55624 279.85938 174.82187L278.78125 174.82187Q278.78125 174.47812 278.95312 174.15Q279.125 173.80624 279.45312 173.54062Q279.78125 173.25937 280.25 173.10312Q280.71875 172.94687 281.29688 172.94687Q281.98438 172.94687 282.51562 173.18124Q283.04688 173.41562 283.34375 173.88437Q283.65625 174.35312 283.65625 175.05624L283.65625 178.00937Q283.65625 178.3375 283.70312 178.69687Q283.76562 179.04062 283.875 179.30624L283.875 179.4L282.73438 179.4Q282.65625 179.2125 282.60938 178.9Q282.5625 178.5875 282.5625 178.32187ZM282.75 175.55624L282.76562 176.32187L281.67188 176.32187Q281.20312 176.32187 280.84375 176.4Q280.48438 176.4625 280.23438 176.61874Q279.98438 176.75937 279.85938 176.97812Q279.73438 177.19687 279.73438 177.49374Q279.73438 177.79062 279.85938 178.04062Q280.0 178.275 280.26562 178.43124Q280.54688 178.57187 280.9375 178.57187Q281.4375 178.57187 281.8125 178.36874Q282.20312 178.15 282.42188 177.85312Q282.65625 177.54062 282.67188 177.24374L283.14062 177.775Q283.09375 178.00937 282.90625 178.32187Q282.73438 178.61874 282.42188 178.9Q282.125 179.16562 281.70312 179.35312Q281.29688 179.525 280.78125 179.525Q280.14062 179.525 279.65625 179.275Q279.17188 179.00937 278.90625 178.5875Q278.64062 178.16562 278.64062 177.63437Q278.64062 177.11874 278.82812 176.74374Q279.03125 176.35312 279.40625 176.0875Q279.78125 175.82187 280.3125 175.69687Q280.84375 175.55624 281.5 175.55624L282.75 175.55624ZM287.0 173.05624L287.0 179.4L285.92188 179.4L285.92188 173.05624L287.0 173.05624ZM285.82812 171.38437Q285.82812 171.11874 285.98438 170.93124Q286.15625 170.74374 286.46875 170.74374Q286.78125 170.74374 286.9375 170.93124Q287.10938 171.11874 287.10938 171.38437Q287.10938 171.63437 286.9375 171.82187Q286.78125 171.99374 286.46875 171.99374Q286.15625 171.99374 285.98438 171.82187Q285.82812 171.63437 285.82812 171.38437ZM289.90625 174.41562L289.90625 179.4L288.82812 179.4L288.82812 173.05624L289.85938 173.05624L289.90625 174.41562ZM289.65625 175.99374L289.20312 175.97812Q289.20312 175.32187 289.39062 174.775Q289.57812 174.2125 289.92188 173.80624Q290.26562 173.4 290.73438 173.18124Q291.20312 172.94687 291.78125 172.94687Q292.25 172.94687 292.625 173.07187Q293.0 173.19687 293.26562 173.47812Q293.53125 173.74374 293.67188 174.18124Q293.8125 174.61874 293.8125 175.24374L293.8125 179.4L292.71875 179.4L292.71875 175.22812Q292.71875 174.72812 292.57812 174.43124Q292.4375 174.13437 292.15625 173.99374Q291.875 173.85312 291.45312 173.85312Q291.04688 173.85312 290.71875 174.025Q290.39062 174.19687 290.15625 174.49374Q289.92188 174.79062 289.78125 175.18124Q289.65625 175.55624 289.65625 175.99374ZM297.0 173.05624L297.0 179.4L295.92188 179.4L295.92188 173.05624L297.0 173.05624ZM295.82812 171.38437Q295.82812 171.11874 295.98438 170.93124Q296.15625 170.74374 296.46875 170.74374Q296.78125 170.74374 296.9375 170.93124Q297.10938 171.11874 297.10938 171.38437Q297.10938 171.63437 296.9375 171.82187Q296.78125 171.99374 296.46875 171.99374Q296.15625 171.99374 295.98438 171.82187Q295.82812 171.63437 295.82812 171.38437ZM301.35938 178.61874Q301.75 178.61874 302.07812 178.4625Q302.40625 178.30624 302.60938 178.04062Q302.82812 177.75937 302.85938 177.4L303.89062 177.4Q303.85938 177.9625 303.5 178.44687Q303.15625 178.93124 302.59375 179.22812Q302.03125 179.525 301.35938 179.525Q300.65625 179.525 300.125 179.275Q299.59375 179.00937 299.23438 178.57187Q298.89062 178.13437 298.71875 177.57187Q298.54688 176.99374 298.54688 176.35312L298.54688 176.10312Q298.54688 175.4625 298.71875 174.9Q298.89062 174.32187 299.23438 173.88437Q299.59375 173.44687 300.125 173.19687Q300.65625 172.94687 301.35938 172.94687Q302.10938 172.94687 302.65625 173.24374Q303.21875 173.54062 303.53125 174.07187Q303.85938 174.5875 303.89062 175.24374L302.85938 175.24374Q302.82812 174.85312 302.64062 174.54062Q302.45312 174.2125 302.125 174.025Q301.79688 173.8375 301.35938 173.8375Q300.85938 173.8375 300.51562 174.04062Q300.1875 174.22812 299.98438 174.55624Q299.79688 174.88437 299.70312 175.29062Q299.625 175.69687 299.625 176.10312L299.625 176.35312Q299.625 176.775 299.70312 177.18124Q299.79688 177.57187 299.98438 177.9Q300.1875 178.22812 300.51562 178.43124Q300.85938 178.61874 301.35938 178.61874ZM305.90625 170.4L305.90625 179.4L304.82812 179.4L304.82812 170.4L305.90625 170.4ZM305.65625 175.99374L305.20312 175.97812Q305.20312 175.32187 305.39062 174.775Q305.57812 174.2125 305.92188 173.80624Q306.26562 173.4 306.73438 173.18124Q307.20312 172.94687 307.78125 172.94687Q308.25 172.94687 308.625 173.07187Q309.0 173.19687 309.26562 173.47812Q309.53125 173.74374 309.67188 174.18124Q309.8125 174.61874 309.8125 175.24374L309.8125 179.4L308.71875 179.4L308.71875 175.22812Q308.71875 174.72812 308.57812 174.43124Q308.4375 174.13437 308.15625 173.99374Q307.875 173.85312 307.45312 173.85312Q307.04688 173.85312 306.71875 174.025Q306.39062 174.19687 306.15625 174.49374Q305.92188 174.79062 305.78125 175.18124Q305.65625 175.55624 305.65625 175.99374ZM313.0 173.05624L313.0 179.4L311.92188 179.4L311.92188 173.05624L313.0 173.05624ZM311.82812 171.38437Q311.82812 171.11874 311.98438 170.93124Q312.15625 170.74374 312.46875 170.74374Q312.78125 170.74374 312.9375 170.93124Q313.10938 171.11874 313.10938 171.38437Q313.10938 171.63437 312.9375 171.82187Q312.78125 171.99374 312.46875 171.99374Q312.15625 171.99374 311.98438 171.82187Q311.82812 171.63437 311.82812 171.38437ZM319.125 170.86874L319.125 179.4L317.98438 179.4L317.98438 170.86874L319.125 170.86874ZM324.26562 170.86874L320.73438 174.85312L318.73438 176.91562L318.54688 175.7125L320.04688 174.05624L322.90625 170.86874L324.26562 170.86874ZM323.1875 179.4L320.03125 175.24374L320.70312 174.3375L324.53125 179.4L323.1875 179.4ZM329.5625 178.32187L329.5625 175.05624Q329.5625 174.68124 329.40625 174.4Q329.26562 174.11874 328.96875 173.97812Q328.67188 173.82187 328.23438 173.82187Q327.8125 173.82187 327.5 173.9625Q327.20312 174.10312 327.03125 174.3375Q326.85938 174.55624 326.85938 174.82187L325.78125 174.82187Q325.78125 174.47812 325.95312 174.15Q326.125 173.80624 326.45312 173.54062Q326.78125 173.25937 327.25 173.10312Q327.71875 172.94687 328.29688 172.94687Q328.98438 172.94687 329.51562 173.18124Q330.04688 173.41562 330.34375 173.88437Q330.65625 174.35312 330.65625 175.05624L330.65625 178.00937Q330.65625 178.3375 330.70312 178.69687Q330.76562 179.04062 330.875 179.30624L330.875 179.4L329.73438 179.4Q329.65625 179.2125 329.60938 178.9Q329.5625 178.5875 329.5625 178.32187ZM329.75 175.55624L329.76562 176.32187L328.67188 176.32187Q328.20312 176.32187 327.84375 176.4Q327.48438 176.4625 327.23438 176.61874Q326.98438 176.75937 326.85938 176.97812Q326.73438 177.19687 326.73438 177.49374Q326.73438 177.79062 326.85938 178.04062Q327.0 178.275 327.26562 178.43124Q327.54688 178.57187 327.9375 178.57187Q328.4375 178.57187 328.8125 178.36874Q329.20312 178.15 329.42188 177.85312Q329.65625 177.54062 329.67188 177.24374L330.14062 177.775Q330.09375 178.00937 329.90625 178.32187Q329.73438 178.61874 329.42188 178.9Q329.125 179.16562 328.70312 179.35312Q328.29688 179.525 327.78125 179.525Q327.14062 179.525 326.65625 179.275Q326.17188 179.00937 325.90625 178.5875Q325.64062 178.16562 325.64062 177.63437Q325.64062 177.11874 325.82812 176.74374Q326.03125 176.35312 326.40625 176.0875Q326.78125 175.82187 327.3125 175.69687Q327.84375 175.55624 328.5 175.55624L329.75 175.55624ZM333.90625 174.41562L333.90625 179.4L332.82812 179.4L332.82812 173.05624L333.85938 173.05624L333.90625 174.41562ZM333.65625 175.99374L333.20312 175.97812Q333.20312 175.32187 333.39062 174.775Q333.57812 174.2125 333.92188 173.80624Q334.26562 173.4 334.73438 173.18124Q335.20312 172.94687 335.78125 172.94687Q336.25 172.94687 336.625 173.07187Q337.0 173.19687 337.26562 173.47812Q337.53125 173.74374 337.67188 174.18124Q337.8125 174.61874 337.8125 175.24374L337.8125 179.4L336.71875 179.4L336.71875 175.22812Q336.71875 174.72812 336.57812 174.43124Q336.4375 174.13437 336.15625 173.99374Q335.875 173.85312 335.45312 173.85312Q335.04688 173.85312 334.71875 174.025Q334.39062 174.19687 334.15625 174.49374Q333.92188 174.79062 333.78125 175.18124Q333.65625 175.55624 333.65625 175.99374ZM339.85938 173.05624L340.95312 173.05624L340.95312 180.15Q340.95312 180.74374 340.76562 181.13437Q340.57812 181.54062 340.20312 181.74374Q339.84375 181.9625 339.28125 181.9625Q339.14062 181.9625 338.95312 181.93124Q338.75 181.9 338.60938 181.86874L338.625 180.99374Q338.73438 181.00937 338.875 181.025Q339.01562 181.04062 339.125 181.04062Q339.35938 181.04062 339.51562 180.94687Q339.6875 180.86874 339.76562 180.66562Q339.85938 180.47812 339.85938 180.15L339.85938 173.05624ZM339.75 171.38437Q339.75 171.11874 339.90625 170.93124Q340.07812 170.74374 340.39062 170.74374Q340.70312 170.74374 340.85938 170.93124Q341.03125 171.11874 341.03125 171.38437Q341.03125 171.63437 340.85938 171.82187Q340.70312 171.99374 340.39062 171.99374Q340.07812 171.99374 339.90625 171.82187Q339.75 171.63437 339.75 171.38437ZM344.0 173.05624L344.0 179.4L342.92188 179.4L342.92188 173.05624L344.0 173.05624ZM342.82812 171.38437Q342.82812 171.11874 342.98438 170.93124Q343.15625 170.74374 343.46875 170.74374Q343.78125 170.74374 343.9375 170.93124Q344.10938 171.11874 344.10938 171.38437Q344.10938 171.63437 343.9375 171.82187Q343.78125 171.99374 343.46875 171.99374Q343.15625 171.99374 342.98438 171.82187Q342.82812 171.63437 342.82812 171.38437Z" fill-rule="nonzero"/><path fill="#000000" d="M19.443745 102.96875Q19.14687 102.96875 18.912495 103.0625Q18.67812 103.140625 18.49062 103.375Q18.30312 103.59375 18.131245 104.0Q17.95937 104.390625 17.787495 104.984375Q17.599995 105.625 17.381245 106.140625Q17.14687 106.640625 16.849995 107.015625Q16.537495 107.375 16.162495 107.5625Q15.771869 107.75 15.271869 107.75Q14.771869 107.75 14.349994 107.546875Q13.928119 107.34375 13.615619 106.96875Q13.303119 106.578125 13.131244 106.046875Q12.943744 105.515625 12.943744 104.859375Q12.943744 103.890625 13.318744 103.21875Q13.678119 102.546875 14.271869 102.203125Q14.865619 101.84375 15.521869 101.84375L15.521869 102.96875Q15.053119 102.96875 14.678119 103.1875Q14.303119 103.390625 14.099994 103.8125Q13.881244 104.21875 13.881244 104.859375Q13.881244 105.453125 14.068744 105.859375Q14.240619 106.25 14.553119 106.4375Q14.865619 106.625 15.256244 106.625Q15.521869 106.625 15.756244 106.515625Q15.974994 106.390625 16.162495 106.15625Q16.349995 105.90625 16.506245 105.53125Q16.662495 105.15625 16.80312 104.625Q17.006245 103.90625 17.27187 103.375Q17.52187 102.84375 17.83437 102.5Q18.14687 102.15625 18.537495 102.0Q18.92812 101.828125 19.42812 101.828125Q19.95937 101.828125 20.381245 102.046875Q20.80312 102.25 21.099995 102.640625Q21.39687 103.03125 21.568745 103.578125Q21.724995 104.125 21.724995 104.796875Q21.724995 105.390625 21.55312 105.96875Q21.381245 106.53125 21.05312 107.0Q20.724995 107.46875 20.256245 107.75Q19.77187 108.03125 19.131245 108.03125L19.131245 106.90625Q19.568745 106.90625 19.881245 106.734375Q20.193745 106.5625 20.39687 106.265625Q20.599995 105.96875 20.70937 105.59375Q20.80312 105.21875 20.80312 104.796875Q20.80312 104.203125 20.64687 103.796875Q20.474995 103.390625 20.17812 103.1875Q19.86562 102.96875 19.443745 102.96875ZM18.506245 100.953125L18.36562 100.953125Q17.67812 100.953125 17.099995 100.765625Q16.506245 100.5625 16.068745 100.1875Q15.631244 99.8125 15.396869 99.28125Q15.146869 98.75 15.146869 98.078125Q15.146869 97.421875 15.396869 96.890625Q15.631244 96.34375 16.068745 95.96875Q16.506245 95.59375 17.099995 95.390625Q17.67812 95.1875 18.36562 95.1875L18.506245 95.1875Q19.17812 95.1875 19.77187 95.390625Q20.349995 95.59375 20.787495 95.96875Q21.224995 96.34375 21.474995 96.875Q21.724995 97.40625 21.724995 98.078125Q21.724995 98.734375 21.474995 99.28125Q21.224995 99.8125 20.787495 100.1875Q20.349995 100.5625 19.77187 100.765625Q19.17812 100.953125 18.506245 100.953125ZM18.36562 99.875L18.506245 99.875Q18.974995 99.875 19.39687 99.765625Q19.818745 99.65625 20.14687 99.4375Q20.45937 99.203125 20.64687 98.859375Q20.818745 98.515625 20.818745 98.078125Q20.818745 97.625 20.64687 97.296875Q20.45937 96.953125 20.14687 96.734375Q19.818745 96.5 19.39687 96.390625Q18.974995 96.28125 18.506245 96.28125L18.36562 96.28125Q17.89687 96.28125 17.474995 96.390625Q17.05312 96.5 16.74062 96.734375Q16.412495 96.953125 16.224995 97.296875Q16.037495 97.625 16.037495 98.078125Q16.037495 98.53125 16.224995 98.875Q16.412495 99.203125 16.74062 99.4375Q17.05312 99.65625 17.474995 99.765625Q17.89687 99.875 18.36562 99.875ZM14.318744 100.28125L12.787494 98.578125L12.787494 97.6875L14.318744 95.984375L14.318744 97.140625L13.396869 98.140625L14.318744 99.125L14.318744 100.28125ZM13.287494 96.421875L11.771869 95.59375L11.771869 94.421875L13.287494 95.59375L13.287494 96.421875ZM15.256244 88.015625L16.08437 88.015625L16.08437 91.453125L15.256244 91.453125L15.256244 88.015625ZM13.724994 90.28125L13.724994 89.203125L20.02187 89.203125Q20.349995 89.203125 20.52187 89.109375Q20.67812 89.0 20.74062 88.84375Q20.787495 88.6875 20.787495 88.5Q20.787495 88.375 20.756245 88.234375Q20.724995 88.078125 20.70937 88.0L21.599995 87.984375Q21.64687 88.125 21.67812 88.328125Q21.724995 88.53125 21.724995 88.828125Q21.724995 89.21875 21.568745 89.5625Q21.39687 89.890625 21.037495 90.09375Q20.662495 90.28125 20.02187 90.28125L13.724994 90.28125ZM14.756244 80.734375L14.756244 79.90625Q15.381244 79.90625 15.818744 80.078125Q16.256245 80.234375 16.474995 80.65625Q16.693745 81.078125 16.693745 81.828125L16.02187 81.828125Q16.02187 81.296875 15.896869 81.078125Q15.756244 80.84375 15.474994 80.796875Q15.193744 80.734375 14.756244 80.734375ZM20.131245 82.796875L15.256244 82.796875L15.256244 81.703125L21.599995 81.703125L21.599995 82.734375L20.131245 82.796875ZM18.80312 82.59375L18.787495 82.140625Q19.412495 82.140625 19.95937 82.28125Q20.49062 82.40625 20.881245 82.703125Q21.27187 82.984375 21.506245 83.46875Q21.724995 83.9375 21.724995 84.609375Q21.724995 85.078125 21.58437 85.46875Q21.443745 85.84375 21.162495 86.125Q20.881245 86.390625 20.42812 86.546875Q19.974995 86.703125 19.349995 86.703125L15.256244 86.703125L15.256244 85.609375L19.36562 85.609375Q19.787495 85.609375 20.068745 85.515625Q20.349995 85.421875 20.506245 85.25Q20.662495 85.078125 20.74062 84.875Q20.80312 84.671875 20.80312 84.453125Q20.80312 83.75 20.537495 83.359375Q20.256245 82.953125 19.80312 82.78125Q19.349995 82.59375 18.80312 82.59375ZM12.724994 84.625L14.443744 83.484375L14.443744 84.421875L12.724994 85.9375L12.724994 84.625ZM20.61562 74.75L15.256244 73.015625L15.256244 71.90625L21.599995 74.1875L21.599995 74.90625L20.61562 74.75ZM15.256244 76.1875L20.64687 74.40625L21.599995 74.28125L21.599995 75.015625L15.256244 77.3125L15.256244 76.1875ZM14.756244 64.734375L14.756244 63.90625Q15.381244 63.90625 15.818744 64.078125Q16.256245 64.234375 16.474995 64.65625Q16.693745 65.078125 16.693745 65.828125L16.02187 65.828125Q16.02187 65.296875 15.896869 65.078125Q15.756244 64.84375 15.474994 64.796875Q15.193744 64.734375 14.756244 64.734375ZM20.131245 66.796875L15.256244 66.796875L15.256244 65.703125L21.599995 65.703125L21.599995 66.734375L20.131245 66.796875ZM18.80312 66.59375L18.787495 66.140625Q19.412495 66.140625 19.95937 66.28125Q20.49062 66.40625 20.881245 66.703125Q21.27187 66.984375 21.506245 67.46875Q21.724995 67.9375 21.724995 68.609375Q21.724995 69.078125 21.58437 69.46875Q21.443745 69.84375 21.162495 70.125Q20.881245 70.390625 20.42812 70.546875Q19.974995 70.703125 19.349995 70.703125L15.256244 70.703125L15.256244 69.609375L19.36562 69.609375Q19.787495 69.609375 20.068745 69.515625Q20.349995 69.421875 20.506245 69.25Q20.662495 69.078125 20.74062 68.875Q20.80312 68.671875 20.80312 68.453125Q20.80312 67.75 20.537495 67.359375Q20.256245 66.953125 19.80312 66.78125Q19.349995 66.59375 18.80312 66.59375ZM23.037495 68.875Q22.77187 68.875 22.58437 68.71875Q22.412495 68.546875 22.412495 68.234375Q22.412495 67.921875 22.58437 67.765625Q22.77187 67.59375 23.037495 67.59375Q23.287495 67.59375 23.45937 67.765625Q23.64687 67.921875 23.64687 68.234375Q23.64687 68.546875 23.45937 68.71875Q23.287495 68.875 23.037495 68.875ZM16.61562 62.59375L21.599995 62.59375L21.599995 63.671875L15.256244 63.671875L15.256244 62.640625L16.61562 62.59375ZM18.193745 62.84375L18.17812 63.296875Q17.52187 63.296875 16.974995 63.109375Q16.412495 62.921875 16.006245 62.578125Q15.599994 62.234375 15.381244 61.765625Q15.146869 61.296875 15.146869 60.71875Q15.146869 60.25 15.271869 59.875Q15.396869 59.5 15.678119 59.234375Q15.943744 58.96875 16.381245 58.828125Q16.818745 58.6875 17.443745 58.6875L21.599995 58.6875L21.599995 59.78125L17.42812 59.78125Q16.92812 59.78125 16.631245 59.921875Q16.33437 60.0625 16.193745 60.34375Q16.05312 60.625 16.05312 61.046875Q16.05312 61.453125 16.224995 61.78125Q16.39687 62.109375 16.693745 62.34375Q16.99062 62.578125 17.381245 62.71875Q17.756245 62.84375 18.193745 62.84375ZM15.256244 52.5625L15.256244 51.578125L21.45937 51.578125Q22.30312 51.578125 22.89687 51.921875Q23.49062 52.265625 23.787495 52.875Q24.099995 53.46875 24.099995 54.265625Q24.099995 54.59375 23.99062 55.046875Q23.89687 55.484375 23.64687 55.90625Q23.412495 56.328125 23.006245 56.609375L22.349995 56.046875Q22.83437 55.640625 23.02187 55.21875Q23.20937 54.78125 23.20937 54.34375Q23.20937 53.828125 23.006245 53.453125Q22.818745 53.078125 22.443745 52.875Q22.068745 52.671875 21.52187 52.671875L16.64687 52.671875L15.256244 52.5625ZM18.506245 56.9375L18.381245 56.9375Q17.64687 56.9375 17.05312 56.765625Q16.45937 56.578125 16.037495 56.265625Q15.599994 55.9375 15.381244 55.484375Q15.146869 55.015625 15.146869 54.421875Q15.146869 53.828125 15.349994 53.390625Q15.553119 52.9375 15.959369 52.625Q16.349995 52.3125 16.912495 52.125Q17.45937 51.9375 18.162495 51.875L18.70937 51.875Q19.39687 51.9375 19.95937 52.125Q20.52187 52.3125 20.912495 52.625Q21.30312 52.9375 21.52187 53.390625Q21.724995 53.84375 21.724995 54.4375Q21.724995 55.015625 21.49062 55.46875Q21.24062 55.921875 20.80312 56.25Q20.36562 56.578125 19.787495 56.765625Q19.193745 56.9375 18.506245 56.9375ZM18.381245 55.84375L18.506245 55.84375Q18.974995 55.84375 19.39687 55.75Q19.80312 55.65625 20.131245 55.453125Q20.443745 55.25 20.631245 54.9375Q20.80312 54.609375 20.80312 54.171875Q20.80312 53.640625 20.568745 53.296875Q20.33437 52.9375 19.95937 52.734375Q19.58437 52.515625 19.14687 52.40625L17.74062 52.40625Q17.412495 52.46875 17.11562 52.609375Q16.818745 52.734375 16.58437 52.9375Q16.33437 53.140625 16.193745 53.453125Q16.05312 53.75 16.05312 54.171875Q16.05312 54.609375 16.24062 54.9375Q16.42812 55.25 16.756245 55.453125Q17.068745 55.65625 17.49062 55.75Q17.89687 55.84375 18.381245 55.84375Z" fill-rule="nonzero"/><path fill="#000000" d="M62.6625 127.94687L62.6625 129.25937Q62.6625 130.30624 62.475 131.025Q62.2875 131.74374 61.928123 132.18124Q61.584373 132.61874 61.084373 132.82187Q60.6 133.025 59.975 133.025Q59.490623 133.025 59.06875 132.9Q58.646873 132.775 58.31875 132.50937Q57.990623 132.22812 57.75625 131.79062Q57.521873 131.35312 57.396873 130.72812Q57.271873 130.0875 57.271873 129.25937L57.271873 127.94687Q57.271873 126.899994 57.459373 126.19687Q57.6625 125.493744 58.00625 125.056244Q58.365623 124.618744 58.85 124.431244Q59.35 124.243744 59.959373 124.243744Q60.459373 124.243744 60.88125 124.368744Q61.303123 124.493744 61.63125 124.75937Q61.959373 125.00937 62.178123 125.44687Q62.4125 125.868744 62.5375 126.493744Q62.6625 127.118744 62.6625 127.94687ZM61.56875 129.43124L61.56875 127.774994Q61.56875 127.19687 61.50625 126.75937Q61.44375 126.32187 61.303123 126.00937Q61.178123 125.69687 60.975 125.50937Q60.7875 125.32187 60.5375 125.22812Q60.2875 125.13437 59.959373 125.13437Q59.584373 125.13437 59.271873 125.274994Q58.975 125.41562 58.771873 125.72812Q58.56875 126.04062 58.459373 126.556244Q58.365623 127.056244 58.365623 127.774994L58.365623 129.43124Q58.365623 130.00937 58.428123 130.44687Q58.50625 130.88437 58.63125 131.2125Q58.771873 131.525 58.959373 131.72812Q59.1625 131.93124 59.4125 132.025Q59.6625 132.11874 59.975 132.11874Q60.38125 132.11874 60.678123 131.97812Q60.975 131.82187 61.178123 131.49374Q61.38125 131.16562 61.475 130.66562Q61.56875 130.15 61.56875 129.43124Z" fill-rule="nonzero"/><path fill="#000000" d="M60.865623 68.671875L60.865623 77.25L59.7875 77.25L59.7875 70.03125L57.6 70.828125L57.6 69.84375L60.709373 68.671875L60.865623 68.671875Z" fill-rule="nonzero"/><path fill="#000000" d="M62.896873 20.709375L62.896873 21.6L57.31875 21.6L57.31875 20.81875L60.115623 17.709375Q60.63125 17.13125 60.9125 16.740625Q61.19375 16.334375 61.303123 16.021875Q61.428123 15.69375 61.428123 15.365625Q61.428123 14.94375 61.25625 14.6Q61.084373 14.25625 60.740623 14.053125Q60.4125 13.834375 59.928123 13.834375Q59.365623 13.834375 58.990623 14.06875Q58.615623 14.2875 58.428123 14.678125Q58.240623 15.06875 58.240623 15.56875L57.146873 15.56875Q57.146873 14.85 57.459373 14.25625Q57.7875 13.6625 58.396873 13.303125Q59.021873 12.94375 59.928123 12.94375Q60.740623 12.94375 61.31875 13.240625Q61.896873 13.521875 62.19375 14.0375Q62.50625 14.5375 62.50625 15.225Q62.50625 15.6 62.38125 15.990625Q62.25625 16.365625 62.0375 16.75625Q61.81875 17.13125 61.521873 17.50625Q61.240623 17.865625 60.9125 18.225L58.615623 20.709375L62.896873 20.709375Z" fill-rule="nonzero"/><path fill="#000000" d="M90.3475 137.82187L90.3475 146.4L89.26938 146.4L89.26938 139.18124L87.08188 139.97812L87.08188 138.99374L90.19125 137.82187L90.3475 137.82187Z" fill-rule="nonzero"/><path fill="#000000" d="M121.981544 145.50937L121.981544 146.4L116.40342 146.4L116.40342 145.61874L119.200294 142.50937Q119.71592 141.93124 119.99717 141.54062Q120.27842 141.13437 120.387794 140.82187Q120.512794 140.49374 120.512794 140.16562Q120.512794 139.74374 120.34092 139.4Q120.169044 139.05624 119.825294 138.85312Q119.49717 138.63437 119.012794 138.63437Q118.450294 138.63437 118.075294 138.86874Q117.700294 139.0875 117.512794 139.47812Q117.325294 139.86874 117.325294 140.36874L116.231544 140.36874Q116.231544 139.65 116.544044 139.05624Q116.87217 138.4625 117.481544 138.10312Q118.106544 137.74374 119.012794 137.74374Q119.825294 137.74374 120.40342 138.04062Q120.981544 138.32187 121.27842 138.8375Q121.59092 139.3375 121.59092 140.025Q121.59092 140.4 121.46592 140.79062Q121.34092 141.16562 121.12217 141.55624Q120.90342 141.93124 120.606544 142.30624Q120.325294 142.66562 119.99717 143.025L117.700294 145.50937L121.981544 145.50937Z" fill-rule="nonzero"/><path fill="#000000" d="M147.58434 141.60312L148.34996 141.60312Q148.92809 141.60312 149.28746 141.41562Q149.66246 141.2125 149.84996 140.88437Q150.03746 140.55624 150.03746 140.13437Q150.03746 139.65 149.86559 139.32187Q149.70934 138.97812 149.38121 138.80624Q149.05309 138.63437 148.55309 138.63437Q148.08434 138.63437 147.74059 138.82187Q147.39684 138.99374 147.19371 139.32187Q147.00621 139.65 147.00621 140.10312L145.91246 140.10312Q145.91246 139.44687 146.24059 138.91562Q146.56871 138.38437 147.16246 138.07187Q147.75621 137.74374 148.55309 137.74374Q149.31871 137.74374 149.89684 138.025Q150.47496 138.29062 150.80309 138.8375Q151.13121 139.36874 151.13121 140.16562Q151.13121 140.49374 150.97496 140.85312Q150.81871 141.2125 150.50621 141.54062Q150.19371 141.85312 149.69371 142.05624Q149.20934 142.25937 148.50621 142.25937L147.58434 142.25937L147.58434 141.60312ZM147.58434 142.49374L147.58434 141.8375L148.50621 141.8375Q149.31871 141.8375 149.84996 142.04062Q150.38121 142.22812 150.69371 142.55624Q151.00621 142.86874 151.13121 143.25937Q151.25621 143.63437 151.25621 144.025Q151.25621 144.61874 151.05309 145.0875Q150.84996 145.54062 150.47496 145.86874Q150.11559 146.18124 149.61559 146.35312Q149.13121 146.525 148.55309 146.525Q147.99059 146.525 147.50621 146.36874Q147.02184 146.19687 146.64684 145.9Q146.27184 145.60312 146.05309 145.16562Q145.84996 144.7125 145.84996 144.15L146.92809 144.15Q146.92809 144.5875 147.11559 144.93124Q147.31871 145.25937 147.67809 145.44687Q148.05309 145.61874 148.55309 145.61874Q149.05309 145.61874 149.41246 145.44687Q149.77184 145.275 149.95934 144.93124Q150.16246 144.57187 150.16246 144.04062Q150.16246 143.50937 149.94371 143.16562Q149.72496 142.82187 149.30309 142.66562Q148.89684 142.49374 148.34996 142.49374L147.58434 142.49374Z" fill-rule="nonzero"/><path fill="#000000" d="M176.96837 142.3375L176.109 142.11874L176.53087 137.86874L180.90587 137.86874L180.90587 138.86874L177.45274 138.86874L177.18712 141.19687Q177.4215 141.05624 177.78087 140.94687Q178.15587 140.82187 178.62462 140.82187Q179.20274 140.82187 179.6715 141.025Q180.14024 141.22812 180.46837 141.60312Q180.81212 141.97812 180.984 142.50937Q181.15587 143.025 181.15587 143.68124Q181.15587 144.29062 180.984 144.80624Q180.82774 145.32187 180.484 145.7125Q180.15587 146.0875 179.64024 146.30624Q179.14024 146.525 178.45274 146.525Q177.93712 146.525 177.484 146.38437Q177.03087 146.22812 176.65587 145.93124Q176.2965 145.63437 176.07774 145.19687Q175.859 144.75937 175.7965 144.15L176.82774 144.15Q176.89024 144.63437 177.09337 144.9625Q177.31212 145.29062 177.65587 145.4625Q177.99962 145.61874 178.45274 145.61874Q178.84337 145.61874 179.14024 145.49374Q179.43712 145.35312 179.64024 145.10312Q179.859 144.85312 179.96837 144.49374Q180.07774 144.13437 180.07774 143.69687Q180.07774 143.29062 179.95274 142.94687Q179.84337 142.60312 179.62462 142.35312Q179.40587 142.0875 179.09337 141.94687Q178.78087 141.79062 178.359 141.79062Q177.82774 141.79062 177.5465 141.94687Q177.26524 142.0875 176.96837 142.3375Z" fill-rule="nonzero"/><path fill="#000000" d="M206.27428 145.49374L206.39928 145.49374Q207.33678 145.49374 207.9149 145.22812Q208.50865 144.9625 208.82115 144.525Q209.13365 144.07187 209.24303 143.50937Q209.36803 142.94687 209.36803 142.36874L209.36803 141.05624Q209.36803 140.47812 209.2274 140.025Q209.1024 139.57187 208.86803 139.275Q208.64928 138.9625 208.3524 138.80624Q208.05553 138.65 207.7274 138.65Q207.3524 138.65 207.05553 138.80624Q206.75865 138.94687 206.55553 139.2125Q206.3524 139.47812 206.24303 139.85312Q206.14928 140.2125 206.14928 140.63437Q206.14928 141.025 206.24303 141.38437Q206.33678 141.72812 206.52428 142.025Q206.7274 142.30624 207.00865 142.47812Q207.30553 142.65 207.69615 142.65Q208.05553 142.65 208.36803 142.50937Q208.69615 142.35312 208.94615 142.10312Q209.19615 141.85312 209.33678 141.54062Q209.49303 141.22812 209.50865 140.88437L210.02428 140.88437Q210.02428 141.36874 209.83678 141.8375Q209.64928 142.30624 209.30553 142.69687Q208.9774 143.0875 208.50865 143.32187Q208.05553 143.54062 207.52428 143.54062Q206.88365 143.54062 206.4149 143.30624Q205.96178 143.05624 205.6649 142.65Q205.36803 142.22812 205.2274 141.72812Q205.08678 141.2125 205.08678 140.69687Q205.08678 140.0875 205.24303 139.55624Q205.4149 139.025 205.74303 138.61874Q206.08678 138.2125 206.57115 137.97812Q207.07115 137.74374 207.7274 137.74374Q208.46178 137.74374 208.9774 138.04062Q209.49303 138.3375 209.82115 138.8375Q210.14928 139.32187 210.2899 139.94687Q210.44615 140.55624 210.44615 141.19687L210.44615 141.5875Q210.44615 142.25937 210.3524 142.94687Q210.27428 143.61874 210.0399 144.24374Q209.80553 144.86874 209.3524 145.35312Q208.89928 145.8375 208.1649 146.13437Q207.44615 146.41562 206.39928 146.41562L206.27428 146.41562L206.27428 145.49374Z" fill-rule="nonzero"/><path fill="#000000" d="M234.86145 137.82187L234.86145 146.4L233.78333 146.4L233.78333 139.18124L231.59583 139.97812L231.59583 138.99374L234.7052 137.82187L234.86145 137.82187ZM243.8927 145.50937L243.8927 146.4L238.31458 146.4L238.31458 145.61874L241.11145 142.50937Q241.62708 141.93124 241.90833 141.54062Q242.18958 141.13437 242.29895 140.82187Q242.42395 140.49374 242.42395 140.16562Q242.42395 139.74374 242.25208 139.4Q242.0802 139.05624 241.73645 138.85312Q241.40833 138.63437 240.92395 138.63437Q240.36145 138.63437 239.98645 138.86874Q239.61145 139.0875 239.42395 139.47812Q239.23645 139.86874 239.23645 140.36874L238.1427 140.36874Q238.1427 139.65 238.4552 139.05624Q238.78333 138.4625 239.3927 138.10312Q240.0177 137.74374 240.92395 137.74374Q241.73645 137.74374 242.31458 138.04062Q242.8927 138.32187 243.18958 138.8375Q243.50208 139.3375 243.50208 140.025Q243.50208 140.4 243.37708 140.79062Q243.25208 141.16562 243.03333 141.55624Q242.81458 141.93124 242.5177 142.30624Q242.23645 142.66562 241.90833 143.025L239.61145 145.50937L243.8927 145.50937Z" fill-rule="nonzero"/><path fill="#000000" d="M264.46423 137.82187L264.46423 146.4L263.3861 146.4L263.3861 139.18124L261.1986 139.97812L261.1986 138.99374L264.30798 137.82187L264.46423 137.82187ZM269.49548 141.60312L270.2611 141.60312Q270.83923 141.60312 271.1986 141.41562Q271.5736 141.2125 271.7611 140.88437Q271.9486 140.55624 271.9486 140.13437Q271.9486 139.65 271.77673 139.32187Q271.62048 138.97812 271.29236 138.80624Q270.96423 138.63437 270.46423 138.63437Q269.99548 138.63437 269.65173 138.82187Q269.30798 138.99374 269.10486 139.32187Q268.91736 139.65 268.91736 140.10312L267.8236 140.10312Q267.8236 139.44687 268.15173 138.91562Q268.47986 138.38437 269.0736 138.07187Q269.66736 137.74374 270.46423 137.74374Q271.22986 137.74374 271.80798 138.025Q272.3861 138.29062 272.71423 138.8375Q273.04236 139.36874 273.04236 140.16562Q273.04236 140.49374 272.8861 140.85312Q272.72986 141.2125 272.41736 141.54062Q272.10486 141.85312 271.60486 142.05624Q271.12048 142.25937 270.41736 142.25937L269.49548 142.25937L269.49548 141.60312ZM269.49548 142.49374L269.49548 141.8375L270.41736 141.8375Q271.22986 141.8375 271.7611 142.04062Q272.29236 142.22812 272.60486 142.55624Q272.91736 142.86874 273.04236 143.25937Q273.16736 143.63437 273.16736 144.025Q273.16736 144.61874 272.96423 145.0875Q272.7611 145.54062 272.3861 145.86874Q272.02673 146.18124 271.52673 146.35312Q271.04236 146.525 270.46423 146.525Q269.90173 146.525 269.41736 146.36874Q268.93298 146.19687 268.55798 145.9Q268.18298 145.60312 267.96423 145.16562Q267.7611 144.7125 267.7611 144.15L268.83923 144.15Q268.83923 144.5875 269.02673 144.93124Q269.22986 145.25937 269.58923 145.44687Q269.96423 145.61874 270.46423 145.61874Q270.96423 145.61874 271.3236 145.44687Q271.68298 145.275 271.87048 144.93124Q272.0736 144.57187 272.0736 144.04062Q272.0736 143.50937 271.85486 143.16562Q271.6361 142.82187 271.21423 142.66562Q270.80798 142.49374 270.2611 142.49374L269.49548 142.49374Z" fill-rule="nonzero"/><path fill="#000000" d="M294.06702 137.82187L294.06702 146.4L292.9889 146.4L292.9889 139.18124L290.8014 139.97812L290.8014 138.99374L293.91077 137.82187L294.06702 137.82187ZM303.27014 143.525L303.27014 144.41562L297.1139 144.41562L297.1139 143.775L300.9264 137.86874L301.81702 137.86874L300.8639 139.57187L298.34827 143.525L303.27014 143.525ZM302.08264 137.86874L302.08264 146.4L301.00452 146.4L301.00452 137.86874L302.08264 137.86874Z" fill-rule="nonzero"/><path fill="#000000" d="M323.6698 137.82187L323.6698 146.4L322.59167 146.4L322.59167 139.18124L320.40417 139.97812L320.40417 138.99374L323.51355 137.82187L323.6698 137.82187ZM331.27917 137.85312L331.37292 137.85312L331.37292 138.775L331.27917 138.775Q330.4198 138.775 329.82605 139.05624Q329.24792 139.3375 328.90417 139.80624Q328.57605 140.25937 328.4198 140.85312Q328.27917 141.43124 328.27917 142.025L328.27917 143.275Q328.27917 143.8375 328.40417 144.275Q328.5448 144.7125 328.77917 145.025Q329.01355 145.32187 329.31042 145.47812Q329.6073 145.61874 329.9198 145.61874Q330.2948 145.61874 330.59167 145.47812Q330.88855 145.3375 331.09167 145.07187Q331.2948 144.80624 331.38855 144.4625Q331.49792 144.10312 331.49792 143.66562Q331.49792 143.29062 331.40417 142.93124Q331.31042 142.57187 331.12292 142.30624Q330.93542 142.025 330.63855 141.86874Q330.34167 141.69687 329.95105 141.69687Q329.49792 141.69687 329.1073 141.91562Q328.71667 142.13437 328.46667 142.49374Q328.21667 142.85312 328.18542 143.25937L327.6073 143.25937Q327.70105 142.60312 327.9198 142.13437Q328.13855 141.66562 328.4823 141.36874Q328.82605 141.07187 329.2323 140.94687Q329.65417 140.80624 330.12292 140.80624Q330.76355 140.80624 331.21667 141.05624Q331.68542 141.29062 331.9823 141.69687Q332.2948 142.0875 332.43542 142.5875Q332.57605 143.0875 332.57605 143.61874Q332.57605 144.2125 332.40417 144.74374Q332.2323 145.275 331.88855 145.68124Q331.56042 146.07187 331.06042 146.30624Q330.57605 146.525 329.9198 146.525Q329.2323 146.525 328.71667 146.24374Q328.20105 145.94687 327.8573 145.47812Q327.52917 144.99374 327.3573 144.41562Q327.18542 143.8375 327.18542 143.24374L327.18542 142.72812Q327.18542 141.82187 327.3573 140.9625Q327.5448 140.0875 327.99792 139.38437Q328.45105 138.68124 329.24792 138.275Q330.0448 137.85312 331.27917 137.85312Z" fill-rule="nonzero"/><path fill="#000000" d="M355.30383 145.50937L355.30383 146.4L349.7257 146.4L349.7257 145.61874L352.52258 142.50937Q353.0382 141.93124 353.31946 141.54062Q353.6007 141.13437 353.71008 140.82187Q353.83508 140.49374 353.83508 140.16562Q353.83508 139.74374 353.6632 139.4Q353.49133 139.05624 353.14758 138.85312Q352.81946 138.63437 352.33508 138.63437Q351.77258 138.63437 351.39758 138.86874Q351.02258 139.0875 350.83508 139.47812Q350.64758 139.86874 350.64758 140.36874L349.55383 140.36874Q349.55383 139.65 349.86633 139.05624Q350.19446 138.4625 350.80383 138.10312Q351.42883 137.74374 352.33508 137.74374Q353.14758 137.74374 353.7257 138.04062Q354.30383 138.32187 354.6007 138.8375Q354.9132 139.3375 354.9132 140.025Q354.9132 140.4 354.7882 140.79062Q354.6632 141.16562 354.44446 141.55624Q354.2257 141.93124 353.92883 142.30624Q353.64758 142.66562 353.31946 143.025L351.02258 145.50937L355.30383 145.50937ZM362.06946 141.44687L362.06946 142.75937Q362.06946 143.80624 361.88196 144.525Q361.69446 145.24374 361.33508 145.68124Q360.99133 146.11874 360.49133 146.32187Q360.00696 146.525 359.38196 146.525Q358.89758 146.525 358.4757 146.4Q358.05383 146.275 357.7257 146.00937Q357.39758 145.72812 357.1632 145.29062Q356.92883 144.85312 356.80383 144.22812Q356.67883 143.5875 356.67883 142.75937L356.67883 141.44687Q356.67883 140.4 356.86633 139.69687Q357.06946 138.99374 357.4132 138.55624Q357.77258 138.11874 358.25696 137.93124Q358.75696 137.74374 359.36633 137.74374Q359.86633 137.74374 360.2882 137.86874Q360.71008 137.99374 361.0382 138.25937Q361.36633 138.50937 361.58508 138.94687Q361.81946 139.36874 361.94446 139.99374Q362.06946 140.61874 362.06946 141.44687ZM360.9757 142.93124L360.9757 141.275Q360.9757 140.69687 360.9132 140.25937Q360.8507 139.82187 360.71008 139.50937Q360.58508 139.19687 360.38196 139.00937Q360.19446 138.82187 359.94446 138.72812Q359.69446 138.63437 359.36633 138.63437Q358.99133 138.63437 358.67883 138.775Q358.38196 138.91562 358.17883 139.22812Q357.9757 139.54062 357.86633 140.05624Q357.77258 140.55624 357.77258 141.275L357.77258 142.93124Q357.77258 143.50937 357.83508 143.94687Q357.9132 144.38437 358.0382 144.7125Q358.17883 145.025 358.36633 145.22812Q358.56946 145.43124 358.81946 145.525Q359.06946 145.61874 359.38196 145.61874Q359.7882 145.61874 360.08508 145.47812Q360.38196 145.32187 360.58508 144.99374Q360.7882 144.66562 360.88196 144.16562Q360.9757 143.65 360.9757 142.93124Z" fill-rule="nonzero"/><path fill="#000000" d="M384.90662 145.50937L384.90662 146.4L379.3285 146.4L379.3285 145.61874L382.12537 142.50937Q382.641 141.93124 382.92224 141.54062Q383.2035 141.13437 383.31287 140.82187Q383.43787 140.49374 383.43787 140.16562Q383.43787 139.74374 383.266 139.4Q383.09412 139.05624 382.75037 138.85312Q382.42224 138.63437 381.93787 138.63437Q381.37537 138.63437 381.00037 138.86874Q380.62537 139.0875 380.43787 139.47812Q380.25037 139.86874 380.25037 140.36874L379.15662 140.36874Q379.15662 139.65 379.46912 139.05624Q379.79724 138.4625 380.40662 138.10312Q381.03162 137.74374 381.93787 137.74374Q382.75037 137.74374 383.3285 138.04062Q383.90662 138.32187 384.2035 138.8375Q384.516 139.3375 384.516 140.025Q384.516 140.4 384.391 140.79062Q384.266 141.16562 384.04724 141.55624Q383.8285 141.93124 383.53162 142.30624Q383.25037 142.66562 382.92224 143.025L380.62537 145.50937L384.90662 145.50937ZM391.90662 145.50937L391.90662 146.4L386.3285 146.4L386.3285 145.61874L389.12537 142.50937Q389.641 141.93124 389.92224 141.54062Q390.2035 141.13437 390.31287 140.82187Q390.43787 140.49374 390.43787 140.16562Q390.43787 139.74374 390.266 139.4Q390.09412 139.05624 389.75037 138.85312Q389.42224 138.63437 388.93787 138.63437Q388.37537 138.63437 388.00037 138.86874Q387.62537 139.0875 387.43787 139.47812Q387.25037 139.86874 387.25037 140.36874L386.15662 140.36874Q386.15662 139.65 386.46912 139.05624Q386.79724 138.4625 387.40662 138.10312Q388.03162 137.74374 388.93787 137.74374Q389.75037 137.74374 390.3285 138.04062Q390.90662 138.32187 391.2035 138.8375Q391.516 139.3375 391.516 140.025Q391.516 140.4 391.391 140.79062Q391.266 141.16562 391.04724 141.55624Q390.8285 141.93124 390.53162 142.30624Q390.25037 142.66562 389.92224 143.025L387.62537 145.50937L391.90662 145.50937Z" fill-rule="nonzero"/><path fill="#000000" d="M414.50943 145.50937L414.50943 146.4L408.9313 146.4L408.9313 145.61874L411.72818 142.50937Q412.2438 141.93124 412.52505 141.54062Q412.8063 141.13437 412.91568 140.82187Q413.04068 140.49374 413.04068 140.16562Q413.04068 139.74374 412.8688 139.4Q412.69693 139.05624 412.35318 138.85312Q412.02505 138.63437 411.54068 138.63437Q410.97818 138.63437 410.60318 138.86874Q410.22818 139.0875 410.04068 139.47812Q409.85318 139.86874 409.85318 140.36874L408.75943 140.36874Q408.75943 139.65 409.07193 139.05624Q409.40005 138.4625 410.00943 138.10312Q410.63443 137.74374 411.54068 137.74374Q412.35318 137.74374 412.9313 138.04062Q413.50943 138.32187 413.8063 138.8375Q414.1188 139.3375 414.1188 140.025Q414.1188 140.4 413.9938 140.79062Q413.8688 141.16562 413.65005 141.55624Q413.4313 141.93124 413.13443 142.30624Q412.85318 142.66562 412.52505 143.025L410.22818 145.50937L414.50943 145.50937ZM417.50943 141.60312L418.27505 141.60312Q418.85318 141.60312 419.21255 141.41562Q419.58755 141.2125 419.77505 140.88437Q419.96255 140.55624 419.96255 140.13437Q419.96255 139.65 419.79068 139.32187Q419.63443 138.97812 419.3063 138.80624Q418.97818 138.63437 418.47818 138.63437Q418.00943 138.63437 417.66568 138.82187Q417.32193 138.99374 417.1188 139.32187Q416.9313 139.65 416.9313 140.10312L415.83755 140.10312Q415.83755 139.44687 416.16568 138.91562Q416.4938 138.38437 417.08755 138.07187Q417.6813 137.74374 418.47818 137.74374Q419.2438 137.74374 419.82193 138.025Q420.40005 138.29062 420.72818 138.8375Q421.0563 139.36874 421.0563 140.16562Q421.0563 140.49374 420.90005 140.85312Q420.7438 141.2125 420.4313 141.54062Q420.1188 141.85312 419.6188 142.05624Q419.13443 142.25937 418.4313 142.25937L417.50943 142.25937L417.50943 141.60312ZM417.50943 142.49374L417.50943 141.8375L418.4313 141.8375Q419.2438 141.8375 419.77505 142.04062Q420.3063 142.22812 420.6188 142.55624Q420.9313 142.86874 421.0563 143.25937Q421.1813 143.63437 421.1813 144.025Q421.1813 144.61874 420.97818 145.0875Q420.77505 145.54062 420.40005 145.86874Q420.04068 146.18124 419.54068 146.35312Q419.0563 146.525 418.47818 146.525Q417.91568 146.525 417.4313 146.36874Q416.94693 146.19687 416.57193 145.9Q416.19693 145.60312 415.97818 145.16562Q415.77505 144.7125 415.77505 144.15L416.85318 144.15Q416.85318 144.5875 417.04068 144.93124Q417.2438 145.25937 417.60318 145.44687Q417.97818 145.61874 418.47818 145.61874Q418.97818 145.61874 419.33755 145.44687Q419.69693 145.275 419.88443 144.93124Q420.08755 144.57187 420.08755 144.04062Q420.08755 143.50937 419.8688 143.16562Q419.65005 142.82187 419.22818 142.66562Q418.82193 142.49374 418.27505 142.49374L417.50943 142.49374Z" fill-rule="nonzero"/><path fill="#000000" d="M444.1122 145.50937L444.1122 146.4L438.5341 146.4L438.5341 145.61874L441.33096 142.50937Q441.8466 141.93124 442.12784 141.54062Q442.4091 141.13437 442.51846 140.82187Q442.64346 140.49374 442.64346 140.16562Q442.64346 139.74374 442.4716 139.4Q442.2997 139.05624 441.95596 138.85312Q441.62784 138.63437 441.14346 138.63437Q440.58096 138.63437 440.20596 138.86874Q439.83096 139.0875 439.64346 139.47812Q439.45596 139.86874 439.45596 140.36874L438.3622 140.36874Q438.3622 139.65 438.6747 139.05624Q439.00284 138.4625 439.6122 138.10312Q440.2372 137.74374 441.14346 137.74374Q441.95596 137.74374 442.5341 138.04062Q443.1122 138.32187 443.4091 138.8375Q443.7216 139.3375 443.7216 140.025Q443.7216 140.4 443.5966 140.79062Q443.4716 141.16562 443.25284 141.55624Q443.0341 141.93124 442.7372 142.30624Q442.45596 142.66562 442.12784 143.025L439.83096 145.50937L444.1122 145.50937ZM451.2841 143.525L451.2841 144.41562L445.12784 144.41562L445.12784 143.775L448.94034 137.86874L449.83096 137.86874L448.87784 139.57187L446.3622 143.525L451.2841 143.525ZM450.0966 137.86874L450.0966 146.4L449.01846 146.4L449.01846 137.86874L450.0966 137.86874Z" fill-rule="nonzero"/><path fill="#000000" d="M473.88687 143.525L473.88687 144.41562L467.73062 144.41562L467.73062 143.775L471.54312 137.86874L472.43375 137.86874L471.48062 139.57187L468.965 143.525L473.88687 143.525ZM472.69937 137.86874L472.69937 146.4L471.62125 146.4L471.62125 137.86874L472.69937 137.86874ZM480.63687 137.86874L480.63687 138.47812L477.10562 146.4L475.965 146.4L479.49625 138.75937L474.87125 138.75937L474.87125 137.86874L480.63687 137.86874Z" fill-rule="nonzero"/></svg>